<svg width="220" height="58" viewBox="0 0 220 58" fill="#002F6C"
  xmlns="http://www.w3.org/2000/svg">
  <path d="M83.5922 48.8296C83.5922 51.6715 85.4114 52.969 87.7695 52.969C91.0567 52.969 91.8063 50.764 91.8063 48.6624V42.907C91.8063 41.1 90.1822 41.8403 90.1822 41.1716C90.1822 41.084 90.3071 40.9965 90.354 40.9965C91.0333 40.9965 91.7204 41.0601 92.3997 41.0601C92.7354 41.0601 93.0477 40.9965 93.3679 40.9965C93.4538 40.9965 93.5943 41.084 93.5943 41.1875C93.5943 41.6731 92.5636 41.283 92.5636 42.9149V48.4236C92.5636 49.2992 92.7744 53.6855 87.6914 53.6855C83.0924 53.6855 82.2258 51.0744 82.2258 48.336V42.3418C82.2258 41.299 80.8047 41.7209 80.8047 41.1636C80.8047 41.0442 81.1014 40.9885 81.1873 40.9885C81.6402 40.9885 82.0774 41.0522 82.5537 41.0522C83.1159 41.0522 83.6702 40.9885 84.209 40.9885C84.2949 40.9885 84.7712 40.9487 84.7712 41.1636C84.7712 41.6492 83.6 41.1636 83.6 42.4373V48.8216L83.5922 48.8296Z"/>
  <path d="M100.223 44.507C100.223 40.8054 98.0996 41.8402 98.0996 41.1795C98.0996 41.076 98.2792 41.0044 98.3651 41.0044C98.6462 41.0044 98.9116 41.0681 99.1849 41.0681C99.4504 41.0681 99.7315 41.0044 99.9892 41.0044C100.184 41.0044 100.341 41.291 100.442 41.4104L108.797 50.8595C108.906 50.9868 108.968 51.0585 109.007 51.0585C109.047 51.0585 109.062 51.0027 109.062 50.8595V43.4244C109.062 41.092 107.118 41.7686 107.118 41.1795C107.118 41.0522 107.204 41.0044 107.305 41.0044C107.828 41.0044 108.336 41.0681 108.898 41.0681C109.46 41.0681 110.241 41.0044 110.663 41.0044C110.764 41.0044 110.835 41.0522 110.835 41.1636C110.835 41.6253 109.804 41.2989 109.804 42.6045V52.9133C109.804 53.4307 109.788 53.6775 109.648 53.6775C109.523 53.6775 109.351 53.5899 108.984 53.176L101.449 44.5548C101.449 44.5548 101.207 44.2204 101.082 44.2204C101.012 44.2204 100.957 44.2682 100.957 44.6264V51.8943C100.957 53.4944 102.496 52.8735 102.496 53.3511C102.496 53.4387 102.48 53.5819 102.3 53.5819C101.879 53.5819 101.387 53.5183 100.536 53.5183C99.9189 53.5183 99.0132 53.5819 98.896 53.5819C98.6852 53.5819 98.6696 53.4705 98.6696 53.3829C98.6696 52.762 100.208 53.5421 100.208 51.0585V44.507H100.223Z"/>
  <path d="M117.941 42.5328C117.925 41.2352 116.52 41.5935 116.52 41.2034C116.52 41.0442 116.551 41.0044 116.691 41.0044C117.34 41.0044 117.972 41.0681 118.612 41.0681C119.151 41.0681 119.698 41.0044 120.236 41.0044C120.517 41.0044 120.572 41.0362 120.572 41.1795C120.572 41.6094 119.307 41.2034 119.307 42.5328V52.0774C119.307 53.2874 120.861 52.8814 120.861 53.4068C120.861 53.5342 120.806 53.5899 120.517 53.5899C120.111 53.5899 119.362 53.5262 118.604 53.5262C117.543 53.5262 117.168 53.5899 116.926 53.5899C116.613 53.5899 116.559 53.5023 116.559 53.3193C116.559 52.8018 117.925 53.3909 117.925 51.6316V42.5328H117.941Z"/>
  <path d="M126.359 42.3816C125.921 41.3149 125.008 41.6492 125.008 41.2591C125.008 41.0999 125.094 41.0044 125.25 41.0044C125.789 41.0044 126.335 41.0601 126.858 41.0601C127.335 41.0601 127.99 41.0044 128.24 41.0044C128.342 41.0044 128.49 41.076 128.49 41.1875C128.506 41.4422 127.772 41.4581 127.772 42.095C127.772 42.3418 127.866 42.6283 127.928 42.7875L130.989 50.1191C131.371 51.0585 131.496 51.4724 131.692 51.4724C131.863 51.4724 131.918 51.1858 132.004 50.9789L135.049 43.3448C135.158 43.0741 135.361 42.5089 135.291 42.1348C135.291 41.3149 134.174 41.6572 134.174 41.2432C134.174 41.0681 134.26 41.0124 134.44 41.0124C134.823 41.0124 135.213 41.0681 135.588 41.0681C136.431 41.0681 136.696 41.0124 136.939 41.0124C137.134 41.0124 137.235 41.084 137.235 41.2432C137.235 41.6412 136.743 41.1954 136.251 42.3895L131.895 52.8655C131.699 53.3033 131.574 53.8924 131.317 53.8924C131.036 53.8924 130.825 53.1441 130.669 52.7779L126.351 42.3895L126.359 42.3816Z"/>
  <path d="M161.448 47.1419C162.673 46.6484 163.657 45.4543 163.657 44.0692C163.657 40.6462 159.784 41.0044 159.503 41.0044C158.59 41.0044 157.59 41.0681 156.575 41.0681C155.685 41.0681 155.771 41.0044 155.459 41.0044C155.248 41.0044 155.107 41.1079 155.107 41.2114C155.107 41.8164 156.614 41.084 156.614 42.7875V51.8306C156.614 53.1839 155.334 52.9292 155.334 53.375C155.334 53.4864 155.404 53.574 155.506 53.574C156.169 53.574 156.841 53.5182 157.505 53.5182C158.957 53.5182 159.355 53.574 159.519 53.574C159.66 53.574 159.816 53.6058 159.816 53.4307C159.816 52.8177 157.989 53.375 157.989 51.8386V48.0972C157.989 47.9141 157.887 47.5957 158.449 47.5957C160.417 47.5957 160.151 47.5399 160.776 48.535L162.72 51.6396C163.384 52.6506 164.071 53.558 165.344 53.558C165.5 53.558 166.484 53.5581 166.484 53.3431C166.484 52.9133 165.625 53.574 164.368 51.6157L161.44 47.126L161.448 47.1419ZM157.996 42.2383C157.996 41.5457 158.371 41.5775 158.996 41.5775C160.714 41.5775 162.353 42.3099 162.353 44.4751C162.353 46.6404 160.667 47.0066 159.917 47.0066C159.09 47.0066 158.004 47.0941 158.004 46.7598V42.2462L157.996 42.2383Z"/>
  <path d="M169.88 50.4216C169.817 50.0634 169.903 49.8644 170.075 49.8644C170.325 49.8644 170.325 50.0793 170.418 50.4535C170.629 51.2734 171.676 53.1202 174.088 53.1202C175.767 53.1202 177.399 52.1729 177.399 50.3102C177.399 46.8872 170.262 48.7977 170.262 44.1647C170.262 41.9039 172.136 40.8134 174.159 40.8134C176.29 40.8134 176.868 41.4582 177.118 41.4582C177.274 41.4582 177.313 41.2591 177.485 41.2591C177.586 41.2591 177.672 41.3149 177.696 41.5139L177.953 43.9259C177.969 44.0692 177.938 44.1886 177.766 44.1886C177.578 44.1886 177.454 43.8145 177.407 43.6552C176.876 42.1268 175.587 41.3467 174.041 41.3467C172.644 41.3467 171.168 42.0233 171.168 43.6552C171.168 46.9986 178.305 45.0404 178.305 49.952C178.305 51.4406 177.282 53.6854 173.284 53.6854C171.98 53.6854 170.387 53.0247 170.317 52.6983L169.88 50.4057V50.4216Z"/>
  <path d="M184.982 42.5328C184.958 41.2352 183.561 41.5935 183.561 41.2034C183.561 41.0442 183.6 41.0044 183.74 41.0044C184.388 41.0044 185.021 41.0681 185.661 41.0681C186.2 41.0681 186.746 41.0044 187.285 41.0044C187.566 41.0044 187.621 41.0362 187.621 41.1795C187.621 41.6094 186.364 41.2034 186.364 42.5328V52.0774C186.364 53.2874 187.917 52.8814 187.917 53.4068C187.917 53.5342 187.871 53.5899 187.566 53.5899C187.16 53.5899 186.41 53.5262 185.661 53.5262C184.591 53.5262 184.224 53.5899 183.982 53.5899C183.662 53.5899 183.615 53.5023 183.615 53.3193C183.615 52.8018 184.982 53.3909 184.982 51.6316V42.5328Z"/>
  <path d="M197.052 42.7955C197.052 42.6681 197.122 41.9915 196.88 41.9756H194.023C192.929 41.9756 192.898 42.2383 192.586 43.2174C192.531 43.3925 192.516 43.6234 192.289 43.6234C192.18 43.6234 192.11 43.496 192.11 43.4085L192.305 41.689C192.328 41.4741 192.305 41.0044 192.617 41.0044C193.984 41.0044 195.334 41.0681 197.591 41.0681C200.761 41.0681 202.369 41.0044 202.721 41.0044C203.127 41.0044 203.213 41.1079 203.236 41.5139L203.322 42.9308C203.338 43.106 203.361 43.3209 203.127 43.3209C202.471 43.3209 203.423 41.9676 201.635 41.9676H199.129C198.348 41.9676 198.434 41.896 198.434 42.8353V51.9023C198.434 53.3909 199.847 52.8098 199.847 53.359C199.847 53.4148 199.863 53.574 199.691 53.574C199.27 53.574 198.785 53.5103 198.278 53.5103C196.318 53.5103 195.99 53.574 195.881 53.574C195.725 53.574 195.67 53.5183 195.67 53.3431C195.67 52.9133 197.052 53.0964 197.052 52.0297V42.7875V42.7955Z"/>
  <path d="M207.89 42.1188C207.437 41.3546 206.578 41.5696 206.578 41.2671C206.578 41.1397 206.687 40.9964 206.804 40.9964C207.273 40.9964 207.609 41.0521 208.795 41.0521C209.373 41.0521 209.842 40.9964 210.021 40.9964C210.138 40.9964 210.349 41.0123 210.349 41.1795C210.349 41.482 209.529 41.4979 209.529 42.0154C209.529 42.3019 209.74 42.5885 209.842 42.7398L211.966 46.1707C212.106 46.3857 212.208 46.4892 212.309 46.4892C212.395 46.4892 212.496 46.3618 212.645 46.1309L214.448 43.1617C214.573 42.9627 214.815 42.6681 214.815 42.1825C214.815 41.3148 213.504 41.681 213.504 41.2591C213.504 41.0283 213.675 40.9885 213.871 40.9885C214.292 40.9885 214.73 41.0442 215.151 41.0442C215.659 41.0442 216.166 40.9885 216.674 40.9885C216.783 40.9885 216.869 41.1079 216.869 41.1954C216.869 41.3944 216.572 41.4661 216.447 41.5377C215.971 41.8243 215.745 42.3179 215.464 42.7636L213.012 46.6404C212.731 47.0782 212.59 47.1737 212.59 47.4444V51.7988C212.59 53.3431 214.027 52.8496 214.027 53.3988C214.027 53.5581 213.871 53.5819 213.629 53.5819C213.363 53.5819 212.356 53.5182 211.708 53.5182C210.919 53.5182 210.287 53.5819 210.131 53.5819C209.974 53.5819 209.865 53.566 209.865 53.367C209.865 52.8734 211.216 53.3352 211.216 52.0694V47.7708C211.216 47.4364 210.958 47.0782 210.81 46.8713L207.89 42.1268V42.1188Z"/>
  <path d="M144.059 46.0832C144.059 46.6882 144.028 46.6882 144.722 46.6882H146.612C148.423 46.6882 147.963 45.2632 148.377 45.2632C148.509 45.2632 148.564 45.4623 148.564 45.5976C148.564 46.2265 148.533 46.8315 148.533 47.4046C148.533 47.8663 148.564 48.328 148.564 48.8057C148.564 48.9649 148.494 49.0365 148.377 49.0365C147.846 49.0365 148.431 47.4763 146.971 47.4763H144.387C144.02 47.4763 144.067 47.7788 144.067 48.0414V51.3052C144.067 52.3481 143.926 52.7779 145.394 52.7779C149.423 52.7779 150.016 50.947 150.243 50.947C150.368 50.947 150.383 51.1301 150.383 51.162C150.383 51.7988 149.923 52.4197 149.501 52.8814C148.947 53.5103 148.556 53.4785 147.799 53.4785C146.471 53.4785 145.152 53.3829 143.817 53.4148C143.114 53.4307 142.38 53.4785 141.685 53.4785C141.529 53.4785 141.427 53.4466 141.427 53.3033C141.459 53.0963 141.638 53.1282 142.193 52.8496C142.645 52.6346 142.685 52.1411 142.685 51.3052V43.1856C142.685 42.3816 142.685 41.5218 141.74 41.3785C141.599 41.3467 141.217 41.3148 141.217 41.1079C141.217 40.9646 141.326 40.8929 141.833 40.8929C145.128 40.8929 146.042 40.9487 146.776 40.9487C147.127 40.9487 148.728 40.8929 149.267 40.8929C149.407 40.8929 149.446 41.076 149.446 41.291C149.446 43.2731 149.196 43.4085 149.095 43.4085C148.673 43.4085 148.962 42.5567 148.673 42.1507C148.228 41.5457 146.417 41.6492 145.714 41.6492C144.035 41.6492 144.074 41.5775 144.074 42.7716V46.0752L144.059 46.0832Z"/>
  <path d="M154.546 33.0041C163.955 33.0041 170.483 26.779 170.483 17.1389C170.483 8.26295 163.869 1.95825 155.265 1.95825C146.66 1.95825 139.789 8.43808 139.789 17.3538C139.789 26.2695 145.387 33.0041 154.546 33.0041ZM154 3.36726C162.229 3.36726 167.422 10.9536 167.422 18.7548C167.422 26.5561 162.479 31.6986 156.319 31.6986C147.964 31.6986 142.858 24.0247 142.858 16.0961C142.858 9.32169 146.91 3.36726 154 3.36726Z"/>
  <path d="M187.073 16.7807C189.955 15.6264 192.25 12.8323 192.25 9.58441C192.25 1.54433 183.177 2.38018 182.521 2.38018C180.382 2.38018 178.055 2.54735 175.705 2.54735C173.612 2.54735 173.815 2.38018 173.081 2.38018C172.589 2.38018 172.269 2.62696 172.269 2.88169C172.269 4.29865 175.783 2.58715 175.783 6.59127V27.7741C175.783 30.9424 172.792 30.3533 172.792 31.4041C172.792 31.6508 172.964 31.8658 173.198 31.8658C174.752 31.8658 176.306 31.6986 177.852 31.6986C181.249 31.6986 182.193 31.8658 182.56 31.8658C182.88 31.8658 183.255 31.9533 183.255 31.5314C183.255 30.1145 178.992 31.4041 178.992 27.8139V19.0176C178.992 18.6036 178.742 17.8474 180.054 17.8474C184.653 17.8474 184.044 17.728 185.512 20.0604L190.064 27.3601C191.625 29.7324 193.218 31.8658 196.209 31.8658C196.584 31.8658 199.824 31.8658 199.824 31.3643C199.824 30.3612 196.865 31.9056 193.913 27.3203L187.066 16.7966L187.073 16.7807ZM179 5.29371C179 3.66978 179.859 3.75734 181.334 3.75734C185.363 3.75734 189.166 5.46088 189.166 10.5397C189.166 15.6184 185.238 16.4463 183.466 16.4463C181.537 16.4463 179 16.6453 179 15.8652V5.29371Z"/>
  <path d="M199.035 4.99122C197.973 3.20011 195.967 3.70162 195.967 2.99314C195.967 2.6986 196.217 2.36426 196.506 2.36426C197.614 2.36426 198.387 2.54735 201.167 2.54735C202.518 2.54735 203.626 2.36426 204.032 2.36426C204.314 2.36426 204.805 2.41203 204.805 2.77821C204.805 3.48669 202.885 3.52649 202.885 4.73648C202.885 5.40516 203.377 6.06588 203.619 6.44003L208.553 14.4801C208.881 14.9816 209.123 15.2284 209.373 15.2284C209.576 15.2284 209.818 14.9338 210.138 14.3925L214.355 7.43508C214.644 6.98134 215.214 6.27286 215.214 5.14247C215.214 3.10459 212.145 3.97228 212.145 2.97722C212.145 2.43591 212.551 2.34834 212.996 2.34834C213.972 2.34834 215.003 2.53143 215.979 2.53143C217.166 2.53143 218.352 2.34834 219.532 2.34834C219.781 2.34834 219.984 2.64288 219.984 2.84985C219.984 3.31156 219.297 3.47873 219.001 3.6459C217.9 4.31458 217.369 5.47681 216.713 6.51963L210.989 15.6025C210.334 16.6454 210.006 16.8523 210.006 17.4812V27.6865C210.006 31.3085 213.363 30.1384 213.363 31.4359C213.363 31.8101 212.988 31.8498 212.418 31.8498C211.802 31.8498 209.428 31.6668 207.929 31.6668C206.094 31.6668 204.618 31.8498 204.251 31.8498C203.884 31.8498 203.634 31.8101 203.634 31.3483C203.634 30.1861 206.781 31.2608 206.781 28.3074V18.2295C206.781 17.4414 206.164 16.6055 205.844 16.104L199.012 4.98326L199.035 4.99122Z"/>
  <path d="M135.119 28.0049C135.322 31.4996 138.351 29.9553 138.351 31.412C138.351 31.826 137.812 31.826 137.367 31.826C136.586 31.826 135.158 31.6429 133.526 31.6429C132.261 31.6429 130.949 31.826 129.981 31.826C129.614 31.826 129.528 31.619 129.528 31.4518C129.528 30.202 132.105 31.1175 132.066 28.0447L130.949 11.9168C130.949 10.874 130.746 10.2929 130.496 10.2929C130.207 10.2929 129.832 10.667 129.426 11.5427L120.955 29.0876C120.752 29.4617 120.096 31.1652 119.682 31.1652C119.268 31.1652 118.987 30.2498 118.862 29.9553L110.141 11.4153C110.016 11.081 109.813 10.9616 109.641 10.9616C109.524 10.9616 109.391 11.1685 109.36 11.5904L108.165 26.182C107.954 31.7066 111.843 29.8756 111.843 31.3802C111.843 31.7941 111.39 31.8419 110.812 31.8419C110.281 31.8419 108.438 31.6588 107.236 31.6588C105.112 31.6588 104.417 31.8419 103.621 31.8419C103.332 31.8419 103.215 31.6349 103.215 31.3404C103.215 29.9234 105.83 31.6349 106.112 27.3044C106.611 20.5141 107.095 16.0961 107.095 11.686C107.095 1.89459 103.925 4.22701 103.925 2.81004C103.925 2.4359 104.245 2.34834 104.62 2.34834C105.354 2.34834 106.088 2.53143 106.869 2.53143C107.603 2.53143 108.337 2.34834 109.055 2.34834C109.633 2.34834 109.711 3.05682 109.914 3.51057L119.69 24.6695C120.15 25.5452 120.307 25.9193 120.596 25.9193C120.799 25.9193 121.205 25.0436 121.868 23.6665L131.636 3.75734C131.87 3.30359 132.206 2.30057 132.69 2.34038C133.104 2.34038 134.408 2.52347 134.603 2.52347C135.548 2.52347 135.915 2.34038 136.571 2.34038C136.821 2.34038 136.985 2.58715 136.985 2.84189C136.985 4.17128 133.705 2.38814 133.877 7.33955L135.111 28.0049H135.119Z"/>
  <path d="M85.3577 14.5119C85.3577 15.9289 85.2797 15.9289 86.9037 15.9289H91.3231C95.5629 15.9289 94.4698 12.5935 95.438 12.5935C95.7659 12.5935 95.883 13.0472 95.883 13.3816C95.883 14.8463 95.8284 16.2553 95.8284 17.5767C95.8284 18.6593 95.883 19.742 95.883 20.8644C95.883 21.2385 95.7268 21.4057 95.438 21.4057C94.1809 21.4057 95.5629 17.7439 92.1429 17.7439H86.0917C85.2328 17.7439 85.3577 18.4524 85.3577 19.0812V26.7472C85.3577 29.207 85.0376 30.202 88.4653 30.202C97.8897 30.202 99.2795 25.9113 99.8105 25.9113C100.092 25.9113 100.131 26.3253 100.131 26.4128C100.131 27.9094 99.0687 29.3662 98.0927 30.4568C96.7809 31.9693 95.883 31.8897 94.095 31.8897C90.9874 31.8897 87.8875 31.6349 84.7877 31.7145C83.1559 31.7623 81.4459 31.8897 79.814 31.8897C79.447 31.8897 79.1972 31.8021 79.1972 31.4677C79.2753 30.9662 79.6891 31.0458 81.0008 30.3692C82.0549 29.8677 82.1486 28.7055 82.1486 26.7472V7.76146C82.1486 5.88279 82.1486 3.88471 79.9389 3.55037C79.611 3.47076 78.7131 3.39116 78.7131 2.90557C78.7131 2.57123 78.9551 2.40406 80.142 2.40406C87.8485 2.40406 89.9723 2.57919 91.6901 2.57919C92.5021 2.57919 96.25 2.40406 97.5227 2.40406C97.8428 2.40406 97.9287 2.818 97.9287 3.31951C97.9287 7.94455 97.3587 8.27889 97.1167 8.27889C96.1329 8.27889 96.7887 6.28081 96.1329 5.32555C95.0788 3.90859 90.839 4.15536 89.2071 4.15536C85.2875 4.15536 85.3655 3.98819 85.3655 6.78232V14.5279L85.3577 14.5119Z"/>
  <path d="M2.13922 0L0.0856963 2.18913C0.0622721 3.7653 0.0310398 5.74746 0.0154237 6.7266C-0.179778 22.2256 0.858694 46.3379 25.6727 58C38.8059 51.8147 48.7377 41.1954 51.3456 24.7173C52.8682 15.1727 51.9547 6.11364 51.9625 0.0238814L2.13141 0L2.13922 0ZM25.7898 56.2169C-1.09332 43.5836 2.13141 15.3637 2.13922 2.16525L49.7137 2.21301C49.6981 15.4115 52.6964 43.6393 25.782 56.2169"/>
  <path d="M15.6249 34.644C13.7197 36.7138 11.838 38.7596 11.2055 39.4522C11.0572 39.6114 11.0494 39.7706 11.1353 39.8741C11.268 40.0174 11.4476 40.2084 11.5178 40.2243C11.635 40.2482 11.7209 40.3039 11.9239 40.081C12.0098 39.9855 14.1023 37.9317 16.5775 35.5117C16.5775 35.5117 16.3276 35.3844 16.109 35.1854C15.8904 34.9863 15.6327 34.652 15.6327 34.652"/>
  <path d="M16.9054 34.0948C17.3895 34.5724 18.1859 35.0341 18.1859 35.0341L17.7487 35.464C17.5847 35.6471 16.9678 35.3605 16.3744 34.8192C15.781 34.2779 15.4375 33.6888 15.6014 33.5137L16.0855 33.0679C16.0855 33.0679 16.4213 33.6251 16.9054 34.1027"/>
  <path d="M38.6343 39.4203C39.0247 39.0222 39.0481 38.6481 39.0481 38.6481L39.4776 38.863C39.6025 38.9983 39.4932 39.5078 39.095 39.9058C38.6968 40.3039 38.1502 40.4392 38.0253 40.2959L37.7988 39.8262C37.7988 39.8262 38.2283 39.8262 38.6343 39.4203Z"/>
  <path d="M37.9862 38.7118C38.2439 38.473 38.3298 38.1625 38.3298 38.1625L38.6109 38.3536C38.7046 38.4491 38.6187 38.7755 38.3298 39.062C38.0409 39.3566 37.6427 39.4521 37.549 39.3486L37.385 39.0382C37.385 39.0382 37.7364 38.9426 37.994 38.7038"/>
  <path d="M39.3058 16.6453L38.7983 17.0991C38.1034 17.3697 36.5339 16.1438 35.3003 15.0453C34.4726 14.305 32.8095 12.4502 33.2858 11.6939L33.4966 11.479C33.3482 11.3914 33.2155 11.3118 33.1218 11.2561C32.9891 11.1845 32.8017 11.1287 32.5909 11.1526C32.3957 11.1765 32.2317 11.2561 32.2239 11.4233C32.1848 11.7576 32.38 12.2034 32.6455 12.7288C32.911 13.2542 33.9417 14.7826 36.0186 16.4623C36.9712 17.2344 38.0565 17.7041 38.8373 17.9986C38.9779 18.0544 39.4698 18.1578 39.6884 17.9429C39.907 17.72 39.665 17.3379 39.501 16.9638C39.462 16.8682 39.3917 16.7568 39.3136 16.6453"/>
  <path d="M19.2313 17.927C17.0216 15.6901 16.1783 15.1727 15.1789 14.7348C14.6635 14.504 14.1482 14.3368 13.992 14.4005C13.5548 14.5677 12.9067 14.8542 12.5007 15.2204C12.2118 15.4831 12.2352 15.6105 12.3914 15.6981C12.5476 15.7856 13.6719 16.0324 14.6948 16.5896C16.4906 17.5608 19.8559 19.941 27.1955 27.6547C30.9277 31.5712 36.7916 37.6371 36.7916 37.6371L36.9399 37.5177C36.9399 37.5177 28.4057 27.79 21.7376 20.5937C20.7929 19.5668 19.9574 18.6912 19.2156 17.9429M17.7321 8.76448C17.7321 8.91573 17.7321 9.09882 17.7321 9.28191C17.7321 9.79138 18.1928 14.0423 20.6055 17.0991C22.6824 19.742 28.9679 27.3522 29.9673 28.5542C30.9043 29.6846 37.0649 37.0082 37.8457 37.9396C37.8769 37.9794 37.9159 38.0272 37.9238 38.0351C37.9238 38.0431 37.8379 38.2341 37.6583 38.3854C37.4631 38.5446 37.2523 38.5605 37.2523 38.5605C37.2288 38.5446 37.0883 38.3934 37.0649 38.3695C36.8384 38.1068 26.196 27.2805 25.1576 26.2616C24.1191 25.2427 18.6378 19.8455 16.3735 18.3807C14.4137 17.1071 13.5236 16.3986 11.3763 16.2155C11.3763 16.2155 9.84596 16.1598 9.74446 16.0802C9.72103 16.0642 9.75227 16.0006 9.79131 15.9846C10.7361 15.5946 12.8052 14.3687 14.4449 12.7925C16.7327 10.5874 17.4666 9.03514 17.5759 8.79632C17.5994 8.73264 17.7399 8.72468 17.7399 8.77244"/>
  <path d="M13.3445 12.7366C13.5865 12.4899 14.4767 11.455 15.2262 10.444C16.0148 9.37731 16.4287 8.42205 16.4287 8.42205C16.4287 8.42205 16.5458 8.11956 16.5302 7.92054C16.5146 7.76133 16.3662 7.69765 16.3116 7.64193C16.2257 7.55436 14.3127 8.55738 13.4616 9.46488C13.3601 9.57632 13.1727 10.0221 13.0868 10.3485C13.0166 10.6271 13.649 11.4072 13.2274 12.5933C13.1727 12.7605 13.3054 12.7764 13.3367 12.7366M12.6652 14.1695C11.6892 15.1089 10.4789 15.9765 9.40142 16.4781C8.72212 16.7965 7.76953 16.4383 8.45664 14.9337C8.66746 14.48 8.96417 13.9068 9.37019 13.2859C10.6507 11.3276 12.9463 8.90764 15.1638 7.52252C15.8353 7.10062 16.4599 6.82996 16.7488 6.84588C17.2954 6.88568 17.3266 7.41903 17.2251 7.92054C16.9987 9.03501 15.398 11.5187 12.6652 14.1616"/>
  <path d="M24.9861 26.8826C24.541 27.3124 17.623 34.055 17.623 34.055C17.7246 34.1584 18.0135 34.3734 18.0135 34.3734C18.0135 34.3734 24.3692 28.1722 24.8377 27.7184C24.9626 27.599 25.2437 27.3363 25.3452 27.2487L24.9782 26.8826H24.9861Z"/>
  <path d="M38.0331 18.5638C38.1268 18.5559 38.2361 18.5479 38.322 18.5399C38.4235 18.5399 38.564 18.5081 38.5875 18.4842C38.6499 18.4365 38.6812 18.3728 38.5718 18.3728C38.2439 18.3648 37.6583 18.1976 36.9868 17.8792C36.5808 17.9907 35.9093 18.1738 35.1207 18.532C34.1212 18.9857 31.935 20.3151 27.4688 24.4864L27.8201 24.9004C29.3661 23.4754 31.4431 21.6206 32.5753 20.8724C34.5741 19.5509 36.0186 18.9539 36.9868 18.7151C37.2757 18.6434 37.7052 18.5957 38.0331 18.5718"/>
  <path d="M33.6753 15.2523C32.4495 13.9548 32.0591 13.0154 31.8639 12.3308C31.8561 12.3069 31.8482 12.2831 31.8404 12.2671C31.8404 12.2592 31.778 12.2433 31.7702 12.299C31.7702 12.3229 31.7546 12.3547 31.7546 12.3866C31.6452 13.7319 31.7702 14.2891 31.208 15.6663C30.7395 16.8126 29.9275 18.2693 28.7953 19.5987C28.1472 20.3709 27.0385 21.6366 26.0234 22.8148L26.734 23.6745C26.8042 23.5949 27.0307 23.3481 27.2883 23.0695C30.7005 19.3599 33.6675 17.0673 34.7372 16.2713C34.3546 15.9449 33.9955 15.6026 33.6753 15.2603"/>
  <path d="M23.5645 25.5531C22.12 27.2089 20.6755 28.8328 20.2539 29.3104C19.9025 29.7164 16.748 33.1554 16.748 33.1554C16.748 33.1554 16.8183 33.2907 16.9198 33.4021C17.0135 33.5136 17.1853 33.6648 17.1853 33.6648C17.1853 33.6648 23.7909 26.779 24.2906 26.2457L23.5645 25.5531Z"/>
  <path d="M34.8799 10.707C34.8799 10.6513 34.8799 10.6115 34.8877 10.5557C34.5441 10.4602 34.2787 10.4761 34.1459 10.6274C33.7165 11.105 34.6691 12.721 36.2853 14.2414C37.9016 15.7619 39.5647 16.6137 39.9942 16.136C40.1659 15.945 40.1113 15.5708 39.8849 15.0853C37.5346 15.3639 34.8799 12.2274 34.8799 10.699"/>
  <path d="M41.5311 13.485C41.4374 13.6602 41.0782 14.1139 40.5394 14.3607C39.9382 14.6234 39.1418 14.6711 38.728 14.5358C36.8697 13.9547 35.7531 12.0283 35.7531 12.0283C34.293 9.62421 36.2528 8.59731 36.4168 8.56547C36.4168 8.56547 36.206 9.35355 36.3387 9.8869C36.4558 10.3645 36.7369 10.7387 36.8228 11.0014C37.0024 11.5347 36.7525 11.9009 36.6354 12.0681C36.5651 12.1556 36.7447 12.1079 36.776 12.084C36.8072 12.0601 36.8228 12.0362 36.8931 11.9885C37.1586 11.7815 37.4084 11.4631 37.3303 11.1287C37.1586 10.3884 36.6354 9.91875 37.2523 8.39034C37.6348 7.45896 38.5172 6.53555 38.603 6.47982C38.7436 6.3843 38.8295 6.26489 38.8373 6.36042C38.8373 6.4639 39.0013 7.15646 39.0793 7.60225C39.1574 8.04804 39.6728 8.95553 39.5556 10.2212C39.4463 11.479 37.4162 12.8641 37.1351 12.9517C37.0414 12.9835 36.9009 13.0631 36.8619 13.1029C36.7916 13.1746 36.8931 13.1905 36.9399 13.1985C37.0492 13.2223 37.9081 13.0074 38.603 12.5218C39.1808 12.1079 39.7352 11.4949 39.9304 11.1287C40.2818 10.4521 40.4536 9.51276 40.4926 9.4252C40.5473 9.28191 40.6097 9.28191 40.6253 9.36151C40.641 9.44112 40.7893 9.99039 40.844 10.269C40.8752 10.4282 40.9611 10.8581 40.9611 11.3437C40.9611 12.291 40.6956 12.7288 40.149 13.1507C39.8367 13.3975 39.4932 13.485 39.1184 13.5248L38.9856 13.5487C38.931 13.5567 38.8841 13.5726 39.0013 13.6283C39.0325 13.6442 39.0793 13.6602 39.134 13.6841C39.4463 13.8273 40.0944 13.8114 40.516 13.5487C40.7034 13.4293 40.9611 13.2383 41.3124 12.896C41.4452 12.7686 41.617 12.5298 41.6404 12.6094C41.6638 12.7208 41.7029 13.1427 41.5233 13.493M42.1635 11.3118C41.9371 11.5745 41.5467 12.2034 41.3124 12.4104C41.5623 12.1875 41.7107 11.6302 41.4374 10.1814C41.2422 9.17046 41.1172 8.82816 40.9845 8.49382C40.9142 8.30277 40.7971 8.35053 40.6644 8.49382C40.5395 8.63711 40.2349 9.1625 40.2271 9.19434C40.1959 9.31375 40.2271 9.2023 39.7665 7.73758C39.4697 6.8062 39.3448 6.15344 39.3604 5.82706C39.3604 5.65193 39.376 5.4768 39.3839 5.34148C39.3839 5.23003 39.3292 5.23003 39.0325 5.3574C38.8763 5.42108 37.6427 6.29673 37.1273 7.61817C36.8306 8.38238 36.8072 9.00329 36.7682 8.62119C36.6823 7.87291 36.6901 7.88883 36.6198 7.91271C36.2138 8.04804 34.7771 8.70875 34.7771 10.675C34.7771 12.3467 37.8769 15.8971 40.3911 15.0931C40.3911 15.0931 42.3041 14.7189 42.3353 12.9756C42.3743 11.2243 42.1713 11.3118 42.1713 11.3118"/>
</svg>
